# xmcd
#
# Track frame offsets:
#	150
#	13595
#	26942
#	38312
#	56722
#	69382
#	86982
#	113125
#	133785
#	145675
#	161000
#	193165
#	208392
#	224477
#
# Disc length: 3196 seconds
#
# Revision: 6
# Processed by: cddbd v1.5.2PL0 Copyright (c) Steve Scherf et al.
# Submitted via: audiograbber 1.83.01
#
DISCID=d50c7a0e
DTITLE=Three Degrees - The Best Of - When Will I See You Again
DYEAR=1996
DGENRE=Oldies
TTITLE0=When Will I See You Again
TTITLE1=Long Lost Lover
TTITLE2=Can't See What You're Doing To Me
TTITLE3=Lonelier Are Fools
TTITLE4=I Didn't Know
TTITLE5=Here I Am
TTITLE6=T.S.O.P. (The Sound Of Philadelphia)
TTITLE7=Dirty Ol' Man
TTITLE8=Love Is The Message  (Single Version)
TTITLE9=Take Good Care Of Yourself
TTITLE10=If And When
TTITLE11=Year Of Decision
TTITLE12=Everybody Gets To Go To The Moon  (Live)
TTITLE13=Get Your Love Back
EXTD=
EXTT0=
EXTT1=
EXTT2=
EXTT3=
EXTT4=
EXTT5=
EXTT6=
EXTT7=
EXTT8=
EXTT9=
EXTT10=
EXTT11=
EXTT12=
EXTT13=
PLAYORDER=
